<svg width="11" height="17" viewBox="0 0 11 17" fill="none" xmlns="http://www.w3.org/2000/svg">
<path d="M5.87854 15.8047V1.17054" stroke="#AABEBA" stroke-width="2" stroke-linecap="round" stroke-linejoin="round"/>
<path d="M1.97607 4.44026C1.42379 4.44026 0.976074 4.88797 0.976074 5.44026C0.976074 5.99254 1.42379 6.44026 1.97607 6.44026L1.97607 4.44026ZM5.87851 1.17196L6.87731 1.12285C6.85141 0.596151 6.42096 0.180081 5.89369 0.172078C5.36642 0.164074 4.92354 0.56689 4.88167 1.09256L5.87851 1.17196ZM9.82293 6.43937C10.3747 6.41619 10.8033 5.95008 10.7801 5.39828C10.7569 4.84648 10.2908 4.41795 9.73898 4.44114L9.82293 6.43937ZM1.97607 5.44026C1.97607 6.44026 1.97667 6.44026 1.97729 6.44025C1.97751 6.44025 1.97814 6.44025 1.97859 6.44025C1.97948 6.44025 1.98043 6.44025 1.98144 6.44024C1.98345 6.44023 1.98569 6.44022 1.98816 6.44019C1.99309 6.44015 1.99891 6.44007 2.0056 6.43994C2.01897 6.43968 2.03582 6.43922 2.05594 6.43842C2.09616 6.43682 2.1496 6.43384 2.21451 6.42833C2.34402 6.41732 2.521 6.39604 2.73089 6.35479C3.14783 6.27283 3.71264 6.10848 4.29617 5.77483C5.51476 5.07806 6.67899 3.7166 6.87536 1.25137L4.88167 1.09256C4.73805 2.89562 3.95106 3.6683 3.30343 4.03861C2.95384 4.23849 2.60679 4.34091 2.34515 4.39234C2.21575 4.41777 2.11175 4.42985 2.04512 4.43551C2.01195 4.43833 1.98852 4.43952 1.97639 4.44C1.97033 4.44025 1.96714 4.44031 1.96701 4.44031C1.96695 4.44031 1.96766 4.4403 1.96916 4.44028C1.96991 4.44028 1.97086 4.44027 1.97201 4.44026C1.97258 4.44026 1.97321 4.44026 1.97389 4.44026C1.97423 4.44026 1.97477 4.44026 1.97494 4.44026C1.9755 4.44026 1.97607 4.44026 1.97607 5.44026ZM4.87972 1.22108C5.00507 3.77032 6.16946 5.15796 7.43469 5.84389C8.03485 6.16927 8.61847 6.31622 9.04716 6.38331C9.26329 6.41713 9.44558 6.43153 9.57869 6.43732C9.64542 6.44023 9.70032 6.44099 9.74152 6.44091C9.76213 6.44087 9.77937 6.44062 9.793 6.44031C9.79982 6.44015 9.80574 6.43999 9.81074 6.43982C9.81323 6.43974 9.8155 6.43966 9.81754 6.43959C9.81855 6.43955 9.81951 6.43951 9.82041 6.43948C9.82086 6.43946 9.82149 6.43943 9.82171 6.43942C9.82233 6.4394 9.82293 6.43937 9.78095 5.44026C9.73898 4.44114 9.73955 4.44111 9.74011 4.44109C9.74027 4.44108 9.74082 4.44106 9.74116 4.44105C9.74183 4.44102 9.74246 4.441 9.74303 4.44098C9.74417 4.44093 9.7451 4.4409 9.74582 4.44088C9.74728 4.44083 9.74791 4.44082 9.74775 4.44082C9.74742 4.44083 9.74394 4.4409 9.73752 4.44092C9.72463 4.44094 9.70014 4.44072 9.66569 4.43922C9.59643 4.4362 9.48914 4.42813 9.3564 4.40736C9.08737 4.36526 8.73616 4.27447 8.3879 4.08566C7.75628 3.74323 6.96945 2.99672 6.87731 1.12285L4.87972 1.22108Z" fill="#AABEBA"/>
</svg>
